<?xml version="1.0" encoding="UTF-8"?>
<svg xmlns="http://www.w3.org/2000/svg" viewBox="0 0 1028 708">
  <defs>
    <style>
      .cls-1, .cls-2 {
        opacity: .81;
      }

      .cls-3 {
        opacity: .83;
      }

      .cls-4, .cls-5, .cls-6, .cls-7 {
        fill: #fff;
      }

      .cls-5 {
        opacity: .12;
      }

      .cls-8 {
        fill: #4c65ba;
        opacity: .36;
      }

      .cls-6, .cls-9, .cls-10 {
        opacity: .47;
      }

      .cls-11 {
        opacity: .31;
      }

      .cls-12, .cls-13 {
        opacity: .58;
      }

      .cls-12, .cls-14 {
        fill: #3e479b;
      }

      .cls-9, .cls-2, .cls-15, .cls-16 {
        fill: #e1e2fe;
      }

      .cls-7, .cls-17 {
        opacity: .66;
      }

      .cls-18 {
        opacity: .35;
      }

      .cls-19 {
        fill: #c5d9ff;
      }

      .cls-20 {
        fill: #f7a9b4;
        opacity: .39;
      }

      .cls-10, .cls-21 {
        fill: #ecf1f7;
      }

      .cls-16 {
        opacity: .32;
      }

      .cls-22 {
        opacity: .84;
      }

      .cls-23 {
        opacity: .41;
      }

      .cls-24 {
        fill: #f28393;
      }

      .cls-13 {
        fill: #ef929c;
      }

      .cls-25 {
        fill: #599af2;
      }

      .cls-26 {
        fill: #6d6cd4;
      }
    </style>
  </defs>
  <g id="BACKGROUND">
    <g>
      <g class="cls-23">
        <path class="cls-15" d="m290.81,429.94c-.81-7.59-1-15.24-.54-22.86,2.17-35.78,18.37-70.28,43.49-95.34,8.96-8.94,19.27-17.07,24.82-28.54,9.35-19.32,7.49-40.85,19.33-60.06,11.85-19.23,29.76-34.69,50.39-43.24,61.52-25.48,151.02,5.95,146.97,83.41-.01.28-.03.68-.03,1.19-.25,16.06,12.73,28.86,28.4,28.41,57.86-1.66,109.87,41.19,123.4,98.24,8.7,36.69-.48,77.9-25.72,105.53-18.84,20.62-44.89,32.78-71.13,41.58-52.6,17.64-108.58,23.72-163.86,20.97-51.75-2.57-106.81-14.8-142.13-53.48-18.84-20.63-30.4-47.75-33.41-75.82Z"/>
      </g>
      <g class="cls-11">
        <ellipse class="cls-15" cx="568.21" cy="174.64" rx="13.29" ry="13.02" transform="translate(381.61 739.04) rotate(-88.79)"/>
      </g>
      <g class="cls-11">
        <path class="cls-15" d="m347.62,175c.19,3.78,3.35,6.69,7.05,6.49,3.71-.2,6.56-3.42,6.37-7.21-.19-3.78-3.35-6.69-7.05-6.49-3.71.2-6.56,3.42-6.37,7.21Z"/>
      </g>
      <g class="cls-11">
        <path class="cls-15" d="m734.09,329.99c.13,2.5,2.21,4.43,4.67,4.3,2.45-.13,4.34-2.27,4.21-4.77-.13-2.5-2.21-4.43-4.67-4.3-2.45.13-4.34,2.27-4.21,4.77Z"/>
      </g>
      <g class="cls-11">
        <ellipse class="cls-15" cx="692.87" cy="558.43" rx="20.93" ry="20.5" transform="translate(120.06 1239.46) rotate(-88.8)"/>
      </g>
    </g>
    <g>
      <g>
        <path class="cls-10" d="m287.72,225.01c-6.42-11.3-2.64-25.77,8.43-32.33,11.07-6.56,32.93-7.28,39.35,4.02,6.42,11.3-10.58,22.18-17.17,33.38-9.19,15.62-24.19,6.23-30.6-5.07Z"/>
        <path class="cls-9" d="m355.26,579.05c-7.95,5.86-19.04,4.03-24.77-4.09s-7.91-25.08.05-30.94c7.95-5.86,17.36,6.54,26.22,10.82,12.35,5.96,6.47,18.35-1.49,24.21Z"/>
        <path class="cls-9" d="m670.43,151.33c8.62-9.06,22.79-9.27,31.65-.48s15.22,29.36,6.6,38.42c-8.62,9.06-22.97-4.23-34.89-7.55-16.63-4.63-11.98-21.33-3.36-30.39Z"/>
      </g>
      <g>
        <path class="cls-16" d="m307.02,275.18c-5.82,16.76-7.41,35.07-3.64,52.39,5.06,23.29,22.51,43.77,19.54,68.61-1.78,14.91-1.47,28.57-1.83,43.22-.74,30.07,20.28,54.97,44.93,67.43,20.02,10.12,42.79,12.79,64.76,10.86,19.78-1.74,39.25-6.93,58.05-13.37,18.12-6.2,35.7-13.91,55.24-13.33,16.25.48,31.31,6.52,46.73,10.71,36.81,10.01,80.36,8.59,111.65-13.11,34.3-23.78,48.15-68.91,36.16-108.35-6.43-21.15-15.01-39.49-11.91-62.02,1.53-11.09,3.81-22.37,1.7-33.36-1.94-10.12-7.48-19.22-14.06-27.14-17.74-21.37-42.98-35-69.23-43.01-29.78-9.09-62.83-14.05-93.79-9.34-60.14,9.15-73.23.25-136.1-8.68-42.12-5.98-81.65,27.51-100.85,62.05-2.91,5.24-5.37,10.75-7.35,16.44Z"/>
        <g class="cls-3">
          <path class="cls-2" d="m336.13,323.57c8.66-11.43,22.05-19.19,28.61-32.33,7.85-15.72,6.2-34.28,13.22-50.35,10.37-23.74,29.14-43.9,52.65-54.97,11.33-5.34,23.77-8.58,35.9-7.65,18.7,1.43,34.83,12.57,47.44,25.86,18.77,19.79,32.05,47.89,54.58,63.74,12.43,8.75,27.04-.53,40.22-3.48,14.9-3.33,30.38-2.55,44.61,1.5,26.21,7.46,48.78,26.24,60.07,50.99,12.05,26.43,10.34,62.97-12.28,85.7-10.46,10.51-24.66,17.54-32.42,30.13-9.75,15.8-10.89,37.16-13.61,54.73-3,19.4-11.3,38.31-23.76,54-.14.18-.28.36-.43.53-21.66,26.92-58.62,36-89.78,22.5,0,0-66.29-28.72-66.3-28.72-67.27-29.14-118.34-76.1-142.85-144.16-5.31-14.73-7.23-46.13-.47-60.5,1.28-2.71,2.85-5.2,4.61-7.53Z"/>
        </g>
      </g>
    </g>
    <circle class="cls-12" cx="646.07" cy="559.87" r="4.5"/>
    <circle class="cls-12" cx="532.19" cy="164.61" r="2.25"/>
    <circle class="cls-12" cx="393.32" cy="570.68" r="4.5"/>
    <circle class="cls-13" cx="664.4" cy="590.97" r="3.5"/>
    <circle class="cls-12" cx="320.06" cy="167.78" r="1.5"/>
    <circle class="cls-13" cx="726.22" cy="207.72" r="5.4" transform="translate(211.82 760.83) rotate(-63.04)"/>
    <path class="cls-13" d="m337.15,153.8c-.24,1.14-1.37,1.87-2.52,1.63-1.14-.24-1.87-1.37-1.63-2.52.24-1.14,1.37-1.87,2.52-1.63,1.14.24,1.87,1.37,1.63,2.52Z"/>
    <path class="cls-13" d="m551.77,146.96c-.24,1.14-1.37,1.87-2.52,1.63-1.14-.24-1.87-1.37-1.63-2.52.24-1.14,1.37-1.87,2.52-1.63,1.14.24,1.87,1.37,1.63,2.52Z"/>
    <path class="cls-12" d="m700.64,213.5c-.21.97-1.16,1.59-2.14,1.39-.97-.21-1.59-1.16-1.39-2.14.21-.97,1.16-1.59,2.14-1.39.97.21,1.59,1.16,1.39,2.14Z"/>
    <path class="cls-12" d="m303.1,523.91c-.21.97-1.16,1.59-2.14,1.39-.97-.21-1.59-1.16-1.39-2.14.21-.97,1.16-1.59,2.14-1.39.97.21,1.59,1.16,1.39,2.14Z"/>
  </g>
  <g id="OBJECTS">
    <g>
      <g class="cls-17">
        <g>
          <path class="cls-4" d="m633.12,335.38h-7.81c-3.28,0-5.94-2.67-5.94-5.94v-8.78c0-1.65-1.04-3.13-2.59-3.7-.92-.34-1.84-.72-2.73-1.13-1.52-.7-3.33-.4-4.49.77l-6.21,6.21c-1.12,1.12-2.62,1.74-4.2,1.74s-3.08-.62-4.2-1.74l-5.52-5.52c-2.32-2.32-2.32-6.09,0-8.4l6.21-6.21c1.16-1.16,1.47-2.97.77-4.49-.41-.9-.79-1.81-1.13-2.73-.57-1.55-2.06-2.59-3.7-2.59h-8.78c-3.28,0-5.94-2.67-5.94-5.94v-7.81c0-3.28,2.67-5.94,5.94-5.94h8.78c1.65,0,3.13-1.04,3.7-2.59.34-.92.72-1.84,1.13-2.73.7-1.52.4-3.33-.77-4.49l-6.21-6.21c-2.32-2.32-2.32-6.09,0-8.4l5.52-5.52c2.32-2.32,6.09-2.32,8.41,0l6.21,6.21c1.16,1.16,2.97,1.47,4.49.77.9-.41,1.82-.79,2.73-1.13,1.55-.57,2.59-2.06,2.59-3.7v-8.78c0-3.28,2.67-5.94,5.94-5.94h7.81c3.28,0,5.94,2.67,5.94,5.94v8.78c0,1.65,1.04,3.13,2.59,3.7.91.34,1.83.72,2.73,1.13,1.52.7,3.33.4,4.49-.77l6.21-6.21c2.32-2.32,6.09-2.32,8.41,0l5.52,5.52c2.32,2.32,2.32,6.09,0,8.4l-6.21,6.21c-1.16,1.17-1.47,2.97-.77,4.49.41.89.79,1.81,1.13,2.73.57,1.55,2.06,2.59,3.7,2.59h8.78c3.28,0,5.94,2.67,5.94,5.94v7.81c0,3.28-2.67,5.94-5.94,5.94h-8.78c-1.65,0-3.13,1.04-3.7,2.59-.33.92-.72,1.83-1.13,2.73-.71,1.52-.4,3.33.77,4.49l6.21,6.21c2.32,2.32,2.32,6.09,0,8.4l-5.52,5.52c-1.12,1.12-2.62,1.74-4.2,1.74s-3.08-.62-4.2-1.74l-6.21-6.21c-1.16-1.16-2.97-1.47-4.49-.77-.89.41-1.81.79-2.73,1.13-1.55.57-2.59,2.06-2.59,3.7v8.78c0,3.28-2.67,5.94-5.94,5.94Zm-20.76-21.93c.86,0,1.72.18,2.54.56.84.39,1.71.75,2.58,1.07,2.33.86,3.9,3.1,3.9,5.58v8.78c0,2.17,1.77,3.94,3.94,3.94h7.81c2.17,0,3.94-1.77,3.94-3.94v-8.78c0-2.48,1.57-4.72,3.9-5.58.87-.32,1.74-.68,2.58-1.07,2.28-1.05,4.99-.59,6.75,1.17l6.21,6.21c1.54,1.54,4.04,1.54,5.58,0l5.52-5.52c1.54-1.54,1.54-4.04,0-5.58l-6.21-6.21c-1.76-1.76-2.23-4.47-1.17-6.75.39-.85.75-1.71,1.07-2.58.86-2.33,3.1-3.9,5.58-3.9h8.78c2.17,0,3.94-1.77,3.94-3.94v-7.81c0-2.17-1.77-3.94-3.94-3.94h-8.78c-2.48,0-4.72-1.57-5.58-3.9-.32-.87-.68-1.73-1.07-2.58-1.06-2.28-.59-4.99,1.17-6.74l6.21-6.21c1.54-1.54,1.54-4.04,0-5.58l-5.52-5.52c-1.54-1.54-4.04-1.54-5.58,0l-6.21,6.21c-1.75,1.76-4.47,2.22-6.75,1.17-.85-.39-1.71-.75-2.58-1.07-2.33-.86-3.9-3.1-3.9-5.58v-8.78c0-2.17-1.77-3.94-3.94-3.94h-7.81c-2.17,0-3.94,1.77-3.94,3.94v8.78c0,2.48-1.57,4.72-3.9,5.58-.86.32-1.73.68-2.58,1.07-2.28,1.06-4.99.59-6.74-1.17l-6.21-6.21c-1.54-1.54-4.04-1.54-5.58,0l-5.52,5.52c-1.54,1.54-1.54,4.04,0,5.58l6.21,6.21c1.75,1.76,2.22,4.47,1.17,6.74-.39.84-.75,1.71-1.07,2.58-.86,2.33-3.1,3.9-5.58,3.9h-8.78c-2.17,0-3.94,1.77-3.94,3.94v7.81c0,2.17,1.77,3.94,3.94,3.94h8.78c2.48,0,4.72,1.57,5.58,3.9.32.86.68,1.73,1.07,2.58,1.05,2.28.58,4.99-1.17,6.74l-6.21,6.21c-1.54,1.54-1.54,4.04,0,5.58l5.52,5.52c1.54,1.54,4.04,1.54,5.58,0l6.21-6.21c1.13-1.13,2.66-1.73,4.21-1.73Zm16.86-2.99c-15.14,0-27.45-12.31-27.45-27.45s12.31-27.45,27.45-27.45,27.45,12.31,27.45,27.45-12.31,27.45-27.45,27.45Zm0-52.9c-14.03,0-25.45,11.42-25.45,25.45s11.42,25.45,25.45,25.45,25.45-11.42,25.45-25.45-11.42-25.45-25.45-25.45Z"/>
          <g class="cls-22">
            <path class="cls-4" d="m618.59,478.07h-9.74c-2.3,0-4.35-1.44-5.15-3.6-.37-1-.77-1.98-1.22-2.94-.97-2.1-.57-4.59,1.07-6.23l6.89-6.89c2.14-2.14,2.14-5.61,0-7.75l-6.12-6.12c-2.14-2.14-5.61-2.14-7.75,0l-6.89,6.89c-1.64,1.64-4.13,2.05-6.23,1.07-.96-.44-1.94-.85-2.94-1.22-2.16-.79-3.6-2.85-3.6-5.15v-9.74c0-3.03-2.45-5.48-5.48-5.48h-8.66c-3.03,0-5.48,2.45-5.48,5.48v9.74c0,2.3-1.44,4.35-3.6,5.15-1,.37-1.98.77-2.94,1.22-2.1.97-4.59.57-6.23-1.07l-6.89-6.89c-2.14-2.14-5.61-2.14-7.75,0l-6.12,6.12c-2.14,2.14-2.14,5.61,0,7.75l6.89,6.89c1.64,1.64,2.05,4.12,1.07,6.23-.44.96-.85,1.94-1.22,2.94-.79,2.16-2.85,3.6-5.15,3.6h-9.74c-3.03,0-5.48,2.45-5.48,5.48v8.66c0,3.03,2.45,5.48,5.48,5.48h9.74c2.3,0,4.35,1.44,5.15,3.6.37,1,.77,1.98,1.22,2.94.97,2.1.57,4.59-1.07,6.23l-6.89,6.89c-2.14,2.14-2.14,5.61,0,7.75l6.12,6.12c2.14,2.14,5.61,2.14,7.75,0l6.89-6.89c1.64-1.64,4.12-2.05,6.23-1.07.96.44,1.94.85,2.94,1.22,2.16.79,3.6,2.85,3.6,5.15v9.74c0,3.03,2.45,5.48,5.48,5.48h8.66c3.03,0,5.48-2.45,5.48-5.48v-9.74c0-2.3,1.44-4.35,3.6-5.15,1-.37,1.98-.77,2.94-1.22,2.1-.97,4.59-.57,6.23,1.07l6.89,6.89c2.14,2.14,5.61,2.14,7.75,0l6.12-6.12c2.14-2.14,2.14-5.61,0-7.75l-6.89-6.89c-1.64-1.64-2.05-4.12-1.07-6.23.44-.96.85-1.94,1.22-2.94.79-2.16,2.85-3.6,5.15-3.6h9.74c3.03,0,5.48-2.45,5.48-5.48v-8.66c0-3.03-2.45-5.48-5.48-5.48Zm-51.48,39.14c-16.2,0-29.33-13.13-29.33-29.33s13.13-29.33,29.33-29.33,29.33,13.13,29.33,29.33-13.13,29.33-29.33,29.33Z"/>
          </g>
          <path class="cls-4" d="m466.29,536.4h-6.56c-2.84,0-5.15-2.31-5.15-5.15v-7.38c0-1.32-.83-2.51-2.07-2.96-.77-.28-1.55-.6-2.3-.95-1.22-.56-2.66-.32-3.59.61l-5.22,5.22c-.97.97-2.27,1.51-3.64,1.51s-2.67-.54-3.64-1.51l-4.64-4.64c-.97-.97-1.51-2.27-1.51-3.64s.54-2.67,1.51-3.64l5.22-5.22c.93-.93,1.18-2.37.61-3.59-.35-.75-.67-1.53-.95-2.3-.45-1.24-1.64-2.07-2.96-2.07h-7.38c-2.84,0-5.15-2.31-5.15-5.15v-6.56c0-2.84,2.31-5.15,5.15-5.15h7.38c1.32,0,2.51-.83,2.96-2.07.29-.78.61-1.56.95-2.3.56-1.22.32-2.66-.61-3.59l-5.22-5.22c-.97-.97-1.51-2.27-1.51-3.64s.54-2.67,1.51-3.64l4.64-4.64c2.01-2.01,5.28-2.01,7.29,0l5.22,5.22c.93.93,2.37,1.18,3.59.61.75-.35,1.52-.67,2.3-.95,1.24-.46,2.07-1.64,2.07-2.96v-7.38c0-2.84,2.31-5.15,5.15-5.15h6.56c2.84,0,5.15,2.31,5.15,5.15v7.38c0,1.32.83,2.5,2.07,2.96.78.29,1.56.61,2.3.95,1.22.57,2.66.32,3.59-.61l5.22-5.22c2.01-2.01,5.28-2.01,7.29,0l4.64,4.64c.97.97,1.51,2.27,1.51,3.64s-.54,2.67-1.51,3.64l-5.22,5.22c-.93.93-1.18,2.37-.61,3.59.35.75.67,1.52.96,2.3.45,1.24,1.64,2.07,2.96,2.07h7.38c2.84,0,5.15,2.31,5.15,5.15v6.56c0,2.84-2.31,5.15-5.15,5.15h-7.38c-1.32,0-2.51.83-2.96,2.07-.29.78-.61,1.55-.96,2.3-.56,1.22-.32,2.66.61,3.59l5.22,5.22c.97.97,1.51,2.27,1.51,3.64s-.54,2.67-1.51,3.64l-4.64,4.64c-.97.97-2.27,1.51-3.64,1.51s-2.67-.54-3.64-1.51l-5.22-5.22c-.93-.93-2.37-1.18-3.59-.61-.76.35-1.53.67-2.31.96-1.24.45-2.07,1.64-2.07,2.96v7.38c0,2.84-2.31,5.15-5.15,5.15Zm-17.44-18.74c.74,0,1.49.16,2.2.48.71.33,1.43.63,2.15.89,2.02.74,3.38,2.69,3.38,4.84v7.38c0,1.74,1.41,3.15,3.15,3.15h6.56c1.74,0,3.15-1.41,3.15-3.15v-7.38c0-2.15,1.36-4.1,3.38-4.84.72-.26,1.44-.56,2.15-.89,1.98-.91,4.33-.51,5.85,1.01l5.22,5.22c1.19,1.19,3.27,1.19,4.46,0l4.64-4.64c.6-.6.92-1.39.92-2.23s-.33-1.63-.92-2.23l-5.22-5.22c-1.52-1.52-1.93-3.87-1.01-5.85.33-.7.63-1.43.89-2.15.74-2.02,2.69-3.38,4.84-3.38h7.38c1.74,0,3.15-1.41,3.15-3.15v-6.56c0-1.74-1.41-3.15-3.15-3.15h-7.38c-2.15,0-4.1-1.36-4.84-3.38-.27-.73-.57-1.46-.89-2.15-.91-1.98-.51-4.33,1.01-5.85l5.22-5.22c.6-.6.92-1.39.92-2.23s-.33-1.63-.92-2.23l-4.64-4.64c-1.23-1.23-3.23-1.23-4.46,0l-5.22,5.22c-1.52,1.52-3.87,1.93-5.85,1.01-.7-.32-1.42-.62-2.15-.89-2.02-.74-3.38-2.69-3.38-4.84v-7.38c0-1.74-1.41-3.15-3.15-3.15h-6.56c-1.74,0-3.15,1.41-3.15,3.15v7.38c0,2.15-1.36,4.09-3.38,4.84-.73.27-1.46.57-2.15.89-1.98.92-4.32.51-5.85-1.01l-5.22-5.22c-1.23-1.23-3.23-1.23-4.46,0l-4.64,4.64c-.6.6-.92,1.39-.92,2.23s.33,1.63.92,2.23l5.22,5.22c1.52,1.52,1.93,3.87,1.01,5.85-.32.7-.62,1.42-.89,2.15-.74,2.02-2.69,3.38-4.84,3.38h-7.38c-1.74,0-3.15,1.41-3.15,3.15v6.56c0,1.74,1.41,3.15,3.15,3.15h7.38c2.15,0,4.1,1.36,4.84,3.38.27.73.57,1.45.89,2.15.92,1.97.51,4.32-1.01,5.85l-5.22,5.22c-.6.6-.92,1.39-.92,2.23s.33,1.63.92,2.23l4.64,4.64c1.19,1.19,3.27,1.19,4.46,0l5.22-5.22c.98-.98,2.3-1.5,3.65-1.5Zm14.16-2.19c-12.8,0-23.22-10.42-23.22-23.22s10.42-23.22,23.22-23.22,23.22,10.42,23.22,23.22-10.42,23.22-23.22,23.22Zm0-44.44c-11.7,0-21.22,9.52-21.22,21.22s9.52,21.22,21.22,21.22,21.22-9.52,21.22-21.22-9.52-21.22-21.22-21.22Z"/>
        </g>
      </g>
      <g>
        <g class="cls-1">
          <path class="cls-4" d="m678.43,427.92h-13.04c-.55,0-1-.45-1-1s.45-1,1-1h13.04c.55,0,1,.45,1,1s-.45,1-1,1Z"/>
          <path class="cls-4" d="m678.43,449.4h-13.04c-.55,0-1-.45-1-1s.45-1,1-1h13.04c.55,0,1,.45,1,1s-.45,1-1,1Z"/>
          <g>
            <g>
              <path class="cls-4" d="m687.65,471.1h-79.26c-1.5,0-2.71-1.22-2.71-2.71v-66.27c0-1.5,1.22-2.71,2.71-2.71h79.26c1.5,0,2.71,1.22,2.71,2.71v66.27c0,1.5-1.22,2.71-2.71,2.71Zm-79.26-69.69c-.39,0-.71.32-.71.71v66.27c0,.39.32.71.71.71h79.26c.39,0,.71-.32.71-.71v-66.27c0-.39-.32-.71-.71-.71h-79.26Z"/>
              <path class="cls-7" d="m687.65,471.1h-79.26c-1.5,0-2.71-1.22-2.71-2.71v-66.27c0-1.5,1.22-2.71,2.71-2.71h79.26c1.5,0,2.71,1.22,2.71,2.71v66.27c0,1.5-1.22,2.71-2.71,2.71Zm-79.26-69.69c-.39,0-.71.32-.71.71v66.27c0,.39.32.71.71.71h79.26c.39,0,.71-.32.71-.71v-66.27c0-.39-.32-.71-.71-.71h-79.26Z"/>
            </g>
            <path class="cls-4" d="m678.43,417.5h-62.12c-.55,0-1-.45-1-1s.45-1,1-1h62.12c.55,0,1,.45,1,1s-.45,1-1,1Z"/>
            <path class="cls-4" d="m678.43,438.35h-62.12c-.55,0-1-.45-1-1s.45-1,1-1h62.12c.55,0,1,.45,1,1s-.45,1-1,1Z"/>
            <path class="cls-4" d="m649.8,427.92h-33.49c-.55,0-1-.45-1-1s.45-1,1-1h33.49c.55,0,1,.45,1,1s-.45,1-1,1Z"/>
            <path class="cls-4" d="m649.8,449.4h-33.49c-.55,0-1-.45-1-1s.45-1,1-1h33.49c.55,0,1,.45,1,1s-.45,1-1,1Z"/>
            <path class="cls-4" d="m638.9,459.36h-22.59c-.55,0-1-.45-1-1s.45-1,1-1h22.59c.55,0,1,.45,1,1s-.45,1-1,1Z"/>
          </g>
        </g>
        <g class="cls-1">
          <path class="cls-4" d="m424.8,318.56h-14.79c-.55,0-1-.45-1-1s.45-1,1-1h14.79c.55,0,1,.45,1,1s-.45,1-1,1Z"/>
          <path class="cls-4" d="m424.8,342.93h-14.79c-.55,0-1-.45-1-1s.45-1,1-1h14.79c.55,0,1,.45,1,1s-.45,1-1,1Z"/>
          <g>
            <g>
              <path class="cls-4" d="m435.48,367.55h-90.39c-1.5,0-2.71-1.22-2.71-2.71v-75.65c0-1.5,1.22-2.71,2.71-2.71h90.39c1.5,0,2.71,1.22,2.71,2.71v75.65c0,1.5-1.22,2.71-2.71,2.71Zm-90.39-79.07c-.39,0-.71.32-.71.71v75.65c0,.39.32.71.71.71h90.39c.39,0,.71-.32.71-.71v-75.65c0-.39-.32-.71-.71-.71h-90.39Z"/>
              <path class="cls-7" d="m435.48,367.55h-90.39c-1.5,0-2.71-1.22-2.71-2.71v-75.65c0-1.5,1.22-2.71,2.71-2.71h90.39c1.5,0,2.71,1.22,2.71,2.71v75.65c0,1.5-1.22,2.71-2.71,2.71Zm-90.39-79.07c-.39,0-.71.32-.71.71v75.65c0,.39.32.71.71.71h90.39c.39,0,.71-.32.71-.71v-75.65c0-.39-.32-.71-.71-.71h-90.39Z"/>
            </g>
            <path class="cls-4" d="m424.8,306.73h-70.48c-.55,0-1-.45-1-1s.45-1,1-1h70.48c.55,0,1,.45,1,1s-.45,1-1,1Z"/>
            <path class="cls-4" d="m424.8,330.39h-70.48c-.55,0-1-.45-1-1s.45-1,1-1h70.48c.55,0,1,.45,1,1s-.45,1-1,1Z"/>
            <path class="cls-4" d="m392.32,318.56h-38c-.55,0-1-.45-1-1s.45-1,1-1h38c.55,0,1,.45,1,1s-.45,1-1,1Z"/>
            <path class="cls-4" d="m392.32,342.93h-38c-.55,0-1-.45-1-1s.45-1,1-1h38c.55,0,1,.45,1,1s-.45,1-1,1Z"/>
            <path class="cls-4" d="m379.94,354.22h-25.63c-.55,0-1-.45-1-1s.45-1,1-1h25.63c.55,0,1,.45,1,1s-.45,1-1,1Z"/>
          </g>
        </g>
      </g>
    </g>
    <g>
      <g>
        <g>
          <path class="cls-14" d="m685.19,285.02h-44.95c-2.01,0-3.8,1.47-4.46,3.66l-1.49,4.94c-.66,2.19-2.45,3.66-4.46,3.66h-64.35c-2.61,0-4.72,2.44-4.72,5.45h0v72.85c0,3.01,2.11,5.45,4.72,5.45h119.7c2.78,0,5.04-2.44,5.04-5.45v-85.11c0-3.01-2.26-5.45-5.04-5.45Z"/>
          <path class="cls-26" d="m639.27,298.04l1.59-4.94c.7-2.19,2.62-3.66,4.76-3.66h39.57c2.78,0,5.04,2.44,5.04,5.45v85.11c0,3.01-2.26,5.45-5.04,5.45h-119.38c-2.78,0-5.04-2.44-5.04-5.45v-72.85c0-3.01,2.26-5.45,5.04-5.45h68.7c2.15,0,4.06-1.47,4.76-3.66Z"/>
          <path class="cls-5" d="m642.2,303.06l1.5-4.66c.66-2.06,2.46-3.45,4.49-3.45h37.3c2.62,0,4.75,2.3,4.75,5.13v80.22c0,2.84-2.13,5.13-4.75,5.13h-112.52c-2.62,0-4.75-2.3-4.75-5.13v-68.67c0-2.84,2.13-5.13,4.75-5.13h64.75c2.02,0,3.82-1.38,4.49-3.45Z"/>
        </g>
        <path class="cls-4" d="m676.59,379.31h-29.53c-.55,0-1-.45-1-1s.45-1,1-1h29.53c1.91,0,3.46-1.55,3.46-3.46v-23.43c0-.55.45-1,1-1s1,.45,1,1v23.43c0,3.01-2.45,5.46-5.46,5.46Z"/>
      </g>
      <g>
        <g>
          <path class="cls-24" d="m332.63,367.87h45.24c2.02,0,3.82,1.65,4.49,4.11l1.5,5.56c.66,2.46,2.47,4.11,4.49,4.11h64.76c2.62,0,4.75,2.74,4.75,6.13h0v81.95c0,3.38-2.13,6.13-4.75,6.13h-120.47c-2.8,0-5.07-2.74-5.07-6.13v-95.74c0-3.38,2.27-6.13,5.07-6.13Z"/>
          <path class="cls-5" d="m378.84,382.53l-1.6-5.56c-.71-2.46-2.63-4.11-4.79-4.11h-39.83c-2.8,0-5.07,2.74-5.07,6.13v95.74c0,3.38,2.27,6.13,5.07,6.13h120.15c2.8,0,5.07-2.74,5.07-6.13v-81.95c0-3.38-2.27-6.13-5.07-6.13h-69.14c-2.16,0-4.08-1.65-4.79-4.11Z"/>
          <path class="cls-5" d="m375.9,388.17l-1.51-5.24c-.67-2.32-2.48-3.88-4.52-3.88h-37.54c-2.64,0-4.78,2.59-4.78,5.78v90.24c0,3.19,2.14,5.78,4.78,5.78h113.25c2.64,0,4.78-2.59,4.78-5.78v-77.24c0-3.19-2.14-5.78-4.78-5.78h-65.17c-2.04,0-3.85-1.56-4.52-3.88Z"/>
        </g>
        <path class="cls-4" d="m336.8,403.05c-.49,0-.89-.45-.89-1v-13.88c0-1.88,1.37-3.41,3.05-3.41h18.64c.49,0,.89.45.89,1s-.4,1-.89,1h-18.64c-.7,0-1.26.63-1.26,1.41v13.88c0,.55-.4,1-.89,1Z"/>
      </g>
    </g>
    <g>
      <g>
        <g>
          <rect class="cls-19" x="411.83" y="247.6" width="205.79" height="77.28" rx="38.64" ry="38.64"/>
          <circle class="cls-25" cx="514.73" cy="253.5" r="54.34"/>
        </g>
        <g>
          <rect class="cls-25" x="411.83" y="236.21" width="205.79" height="77.28" rx="38.64" ry="38.64"/>
          <circle class="cls-25" cx="514.73" cy="242.12" r="54.34" transform="translate(-53.79 223.43) rotate(-23.31)"/>
        </g>
        <g class="cls-18">
          <g>
            <rect class="cls-21" x="411.83" y="236.21" width="205.79" height="77.28" rx="38.64" ry="38.64"/>
            <circle class="cls-21" cx="514.73" cy="242.12" r="54.34" transform="translate(-53.79 223.43) rotate(-23.31)"/>
          </g>
        </g>
        <g>
          <g>
            <path class="cls-4" d="m502.02,250.21c-.65,0-1.29-.25-1.78-.75-.97-.98-.95-2.57.03-3.54l14.58-14.34,14.35,14.35c.98.98.98,2.56,0,3.54-.98.98-2.56.98-3.54,0l-10.85-10.85-11.05,10.86c-.49.48-1.12.72-1.75.72Z"/>
            <path class="cls-4" d="m514.73,270.09c-1.38,0-2.5-1.12-2.5-2.5v-32.48c0-1.38,1.12-2.5,2.5-2.5s2.5,1.12,2.5,2.5v32.48c0,1.38-1.12,2.5-2.5,2.5Z"/>
          </g>
          <path class="cls-4" d="m538.36,285.52h-47.63c-3.41,0-6.19-2.78-6.19-6.19v-17.31c0-1.38,1.12-2.5,2.5-2.5s2.5,1.12,2.5,2.5v17.31c0,.66.54,1.19,1.19,1.19h47.63c.86,0,1.57-.7,1.57-1.57v-16.93c0-1.38,1.12-2.5,2.5-2.5s2.5,1.12,2.5,2.5v16.93c0,3.62-2.95,6.57-6.57,6.57Z"/>
        </g>
      </g>
      <g>
        <path class="cls-8" d="m590.32,450.93l-136.32,45.04c-3.33,1.1-6.93-.71-8.03-4.04l-45.04-136.32c-1.1-3.33.71-6.93,4.04-8.03l136.32-45.04c3.33-1.1,6.93.71,8.03,4.04l45.04,136.32c1.1,3.33-.71,6.93-4.04,8.03Z"/>
        <rect class="cls-4" x="409.48" y="316.07" width="156.29" height="156.29" rx="6.36" ry="6.36" transform="translate(-99.05 172.88) rotate(-18.28)"/>
        <g>
          <rect class="cls-19" x="422.71" y="329.41" width="129.67" height="129.67" transform="translate(-99.07 172.85) rotate(-18.28)"/>
          <path class="cls-6" d="m445.27,477.18l-9.21-27.88,13.47-32.47c1.86-4.49,6.77-6.8,11.42-5.35l24.94,7.75c1.47.46,3.06-.15,3.85-1.47l20.76-34.55c4.41-7.34,13.67-10.32,21.53-6.94l22.87,9.84.21.64,16.13,48.82-1.42.47-124.55,41.15Zm-6.01-27.76l7.92,23.97,120.27-39.74-14.98-45.33-21.62-9.3c-6.5-2.8-14.13-.33-17.77,5.73l-20.76,34.55c-1.51,2.51-4.51,3.66-7.31,2.79l-24.94-7.75c-3.16-.98-6.5.58-7.76,3.64l-13.04,31.44Z"/>
          <path class="cls-6" d="m486.38,381.18c-6.7,0-12.95-4.25-15.16-10.95-2.76-8.35,1.79-17.4,10.15-20.16,8.35-2.76,17.4,1.79,20.16,10.15,2.76,8.36-1.79,17.4-10.15,20.16-1.66.55-3.34.81-4.99.81Zm-.02-28.92c-1.34,0-2.71.21-4.06.66-6.78,2.24-10.48,9.58-8.24,16.37,2.24,6.78,9.59,10.48,16.37,8.24,6.78-2.24,10.48-9.58,8.24-16.37-1.8-5.44-6.87-8.89-12.31-8.89Z"/>
        </g>
      </g>
      <g>
        <rect class="cls-8" x="518.58" y="356.34" width="119.14" height="119.14" rx="6.36" ry="6.36"/>
        <rect class="cls-4" x="512.53" y="350.29" width="119.14" height="119.14" rx="6.36" ry="6.36"/>
        <g>
          <rect class="cls-20" x="522.61" y="360.44" width="98.85" height="98.85"/>
          <path class="cls-6" d="m623.09,460.15h-101.85v-22.87l17.6-20.38c2.55-2.95,6.86-3.46,10.03-1.2l16.2,11.57c.82.59,1.93.54,2.7-.12l23.29-20.04c5.08-4.38,12.7-4.32,17.71.13l14.32,12.69v40.22Zm-98.85-3h95.85v-35.87l-13.31-11.8c-3.9-3.46-9.82-3.5-13.77-.1l-23.29,20.05c-1.82,1.56-4.45,1.68-6.4.29l-16.2-11.57c-1.9-1.36-4.49-1.05-6.01.72l-16.87,19.54v18.75Z"/>
          <path class="cls-6" d="m578.13,401.09c-6.9,0-12.52-5.62-12.52-12.52s5.62-12.52,12.52-12.52,12.52,5.62,12.52,12.52-5.62,12.52-12.52,12.52Zm0-22.04c-5.25,0-9.52,4.27-9.52,9.52s4.27,9.52,9.52,9.52,9.52-4.27,9.52-9.52-4.27-9.52-9.52-9.52Z"/>
        </g>
      </g>
      <g>
        <rect class="cls-8" x="473.32" y="422.44" width="76.96" height="76.96" rx="6.36" ry="6.36" transform="translate(-129.18 208.88) rotate(-20.54)"/>
        <rect class="cls-4" x="468.29" y="420.15" width="76.96" height="76.96" rx="6.36" ry="6.36" transform="translate(-128.7 206.97) rotate(-20.54)"/>
        <g>
          <rect class="cls-25" x="474.81" y="426.72" width="63.85" height="63.85" transform="translate(-128.71 206.95) rotate(-20.54)"/>
          <path class="cls-6" d="m487.1,501.26l-5.44-14.52,6.1-16.5c.97-2.62,3.73-4.05,6.43-3.33l12.42,3.33c.39.11.81-.07,1-.43l9.55-17.41c2.21-4.03,7.11-5.82,11.4-4.18l11.76,4.52,9.39,25.05-62.6,23.46Zm-2.24-14.52l3.99,10.66,56.98-21.35-7.86-20.98-10.5-4.04c-2.9-1.11-6.2.1-7.69,2.82l-9.55,17.4c-.86,1.57-2.67,2.35-4.41,1.88l-12.42-3.33c-1.19-.32-2.41.31-2.84,1.47l-5.71,15.46Z"/>
          <path class="cls-6" d="m505.6,453.01c-3.49,0-6.79-2.14-8.08-5.59-1.67-4.45.6-9.43,5.05-11.1,4.45-1.67,9.43.6,11.1,5.05h0c1.67,4.45-.6,9.43-5.05,11.1-.99.37-2.01.55-3.01.55Zm-.02-14.24c-.65,0-1.32.12-1.97.36-2.9,1.09-4.38,4.33-3.29,7.23,1.09,2.9,4.33,4.38,7.23,3.29,2.9-1.09,4.38-4.33,3.29-7.23-.84-2.25-2.99-3.65-5.27-3.65Z"/>
        </g>
      </g>
    </g>
  </g>
</svg>