<svg width="22" height="22" viewBox="0 0 22 22" fill="none" xmlns="http://www.w3.org/2000/svg">
<path d="M8.07813 18.5625C8.07813 18.8005 8.00756 19.0331 7.87536 19.2309C7.74316 19.4288 7.55526 19.583 7.33542 19.674C7.11557 19.7651 6.87367 19.7889 6.64028 19.7425C6.4069 19.6961 6.19252 19.5815 6.02426 19.4132C5.856 19.245 5.74142 19.0306 5.69499 18.7972C5.64857 18.5638 5.6724 18.3219 5.76346 18.1021C5.85452 17.8822 6.00873 17.6943 6.20658 17.5621C6.40443 17.4299 6.63704 17.3594 6.875 17.3594C7.19409 17.3594 7.50011 17.4861 7.72574 17.7118C7.95137 17.9374 8.07813 18.2434 8.07813 18.5625ZM15.8125 17.3594C15.5745 17.3594 15.3419 17.4299 15.1441 17.5621C14.9462 17.6943 14.792 17.8822 14.701 18.1021C14.6099 18.3219 14.5861 18.5638 14.6325 18.7972C14.6789 19.0306 14.7935 19.245 14.9618 19.4132C15.13 19.5815 15.3444 19.6961 15.5778 19.7425C15.8112 19.7889 16.0531 19.7651 16.2729 19.674C16.4928 19.583 16.6807 19.4288 16.8129 19.2309C16.9451 19.0331 17.0156 18.8005 17.0156 18.5625C17.0156 18.2434 16.8889 17.9374 16.6632 17.7118C16.4376 17.4861 16.1316 17.3594 15.8125 17.3594ZM19.7424 6.33875L17.2915 14.306C17.174 14.6929 16.9351 15.0316 16.61 15.272C16.2849 15.5124 15.8911 15.6416 15.4868 15.6406H7.22477C6.81368 15.6391 6.41419 15.5043 6.08629 15.2563C5.75839 15.0084 5.51979 14.6607 5.40633 14.2656L2.29883 3.39023C2.28853 3.35423 2.26676 3.32258 2.23682 3.30008C2.20688 3.27759 2.17041 3.26549 2.13297 3.26562H0.6875C0.550748 3.26562 0.419597 3.2113 0.322898 3.1146C0.2262 3.0179 0.171875 2.88675 0.171875 2.75C0.171875 2.61325 0.2262 2.4821 0.322898 2.3854C0.419597 2.2887 0.550748 2.23438 0.6875 2.23438H2.13297C2.39418 2.23508 2.64812 2.32048 2.85669 2.47775C3.06525 2.63502 3.21718 2.85569 3.28969 3.10664L4.02273 5.67188H19.25C19.3306 5.67196 19.4101 5.69094 19.482 5.72729C19.554 5.76365 19.6164 5.81637 19.6643 5.88121C19.7122 5.94606 19.7442 6.02123 19.7577 6.10069C19.7713 6.18015 19.7661 6.26169 19.7424 6.33875ZM18.5522 6.70312H11.4348H4.3175L6.39805 13.9863C6.44941 14.1659 6.5579 14.3239 6.70707 14.4363C6.85624 14.5487 7.03798 14.6095 7.22477 14.6094H15.4842C15.668 14.6094 15.847 14.5505 15.9949 14.4413C16.1428 14.3321 16.2517 14.1784 16.3058 14.0027L18.5522 6.70312Z" fill="#282828"/>
<path d="M10.8977 12.5028V7.81534H11.6932V12.5028H10.8977ZM8.9517 10.5568V9.76136H13.6392V10.5568H8.9517Z" fill="#282828"/>
</svg>
