<svg width="28" height="28" viewBox="0 0 28 28" fill="none" xmlns="http://www.w3.org/2000/svg">
<g clip-path="url(#clip0_382_628)">
<path d="M26.6666 13.6666C26.6666 20.8451 20.8469 26.6666 13.6655 26.6666C6.48407 26.6666 0.666668 20.8451 0.666668 13.6666" stroke="white" stroke-miterlimit="10"/>
<path d="M0.666668 13.6666C0.666668 6.48584 6.48588 0.666626 13.6666 0.666626C20.8474 0.666626 26.6666 6.48584 26.6666 13.6666" stroke="white" stroke-miterlimit="10"/>
<path d="M3.66698 13.6666C3.66698 8.14226 8.14501 3.66663 13.667 3.66663C19.1889 3.66663 23.6669 8.14466 23.6669 13.6666" stroke="white" stroke-miterlimit="10"/>
<path d="M7.6666 13.6667C7.6666 10.3527 10.3526 7.66675 13.6666 7.66675C16.9806 7.66675 19.6666 10.3527 19.6666 13.6667" stroke="white" stroke-miterlimit="10"/>
<path d="M16.667 13.6666H26.6669" stroke="white" stroke-miterlimit="10"/>
<path d="M0.666668 13.6666H11.6666" stroke="white" stroke-miterlimit="10"/>
<path d="M18.6668 16.6665H26.6667" stroke="white" stroke-miterlimit="10"/>
<path d="M0.666668 16.6665H8.66665" stroke="white" stroke-miterlimit="10"/>
<path d="M21.6671 20.6665H24.6671" stroke="white" stroke-miterlimit="10"/>
<path d="M2.66648 20.6665H5.66647" stroke="white" stroke-miterlimit="10"/>
<path d="M3.66698 22.6666L13.6682 10.6666L23.6669 22.6666" stroke="white" stroke-miterlimit="10"/>
<path d="M10.6669 26.6666L15.6669 19.6666" stroke="white" stroke-miterlimit="10"/>
<path d="M13.6666 22.6666L16.6666 26.6666" stroke="white" stroke-miterlimit="10"/>
<path d="M6.6667 24.6666L15.6667 13.6666" stroke="white" stroke-miterlimit="10"/>
<path d="M13.6666 16.6665L19.6666 25.6665" stroke="white" stroke-miterlimit="10"/>
</g>
<defs>
<clipPath id="clip0_382_628">
<rect width="28" height="28" fill="white"/>
</clipPath>
</defs>
</svg>
