<svg width="30" height="30" viewBox="0 0 30 30" fill="none" xmlns="http://www.w3.org/2000/svg">
<path d="M27.1882 7.53098L15.8647 1.16635C15.6 1.01624 15.3024 0.9375 15 0.9375C14.6976 0.9375 14.4 1.01624 14.1353 1.16635L2.81176 7.53098C2.52843 7.69014 2.29198 7.92456 2.12717 8.20972C1.96237 8.49488 1.87527 8.82029 1.875 9.15186V21.786C1.87527 22.1176 1.96237 22.443 2.12717 22.7281C2.29198 23.0133 2.52843 23.2477 2.81176 23.4069L14.1353 29.7715C14.4001 29.9214 14.6976 30 15 30C15.3024 30 15.5999 29.9214 15.8647 29.7715L27.1882 23.4069C27.4716 23.2477 27.708 23.0133 27.8728 22.7281C28.0376 22.443 28.1247 22.1176 28.125 21.786V9.15186C28.1247 8.82029 28.0376 8.49488 27.8728 8.20972C27.708 7.92456 27.4716 7.69014 27.1882 7.53098ZM14.8713 2.55605C14.9092 2.53477 14.9517 2.52362 14.9949 2.52362C15.038 2.52362 15.0805 2.53477 15.1184 2.55605L25.8744 8.59968L21.5072 11.0528L10.6314 4.9418L14.8713 2.55605ZM14.2279 28.0185L3.54779 22.0172C3.50833 21.9938 3.47562 21.9601 3.45302 21.9195C3.43041 21.8788 3.41871 21.8328 3.41912 21.786V10.0079L14.2279 16.0845V28.0185ZM4.12555 8.59968L9.02426 5.84537L19.8987 11.9564L15 14.708L4.12555 8.59968ZM26.5809 21.786C26.5813 21.8328 26.5696 21.8788 26.547 21.9195C26.5244 21.9601 26.4917 21.9938 26.4522 22.0172L15.7721 28.0185V16.0819L20.4044 13.4782V18.6394C20.4044 18.8496 20.4858 19.0512 20.6305 19.1998C20.7753 19.3485 20.9717 19.432 21.1765 19.432C21.3812 19.432 21.5776 19.3485 21.7224 19.1998C21.8672 19.0512 21.9485 18.8496 21.9485 18.6394V12.6116L26.5809 10.0079V21.786Z" fill="white"/>
</svg>
