<svg width="27" height="27" viewBox="0 0 27 27" fill="none" xmlns="http://www.w3.org/2000/svg">
<g clip-path="url(#clip0_382_649)">
<path d="M18.9292 17.7483L26.4234 25.2425L25.2434 26.4226L17.7492 18.9283L18.9292 17.7483Z" fill="white"/>
<path d="M10.8491 21.6982C4.84036 21.6982 0 16.8578 0 10.8491C0 4.84036 4.84036 0 10.8491 0C16.8578 0 21.6982 4.84036 21.6982 10.8491C21.6982 16.8578 16.8578 21.6982 10.8491 21.6982ZM10.8491 1.66909C5.75836 1.66909 1.66909 5.75836 1.66909 10.8491C1.66909 15.9398 5.75836 20.0291 10.8491 20.0291C15.9398 20.0291 20.0291 15.9398 20.0291 10.8491C20.0291 5.75836 15.9398 1.66909 10.8491 1.66909Z" fill="white"/>
</g>
<defs>
<clipPath id="clip0_382_649">
<rect width="27" height="27" fill="white"/>
</clipPath>
</defs>
</svg>
