<?xml version="1.0" encoding="utf-8"?>
<!-- Generator: Adobe Illustrator 27.5.0, SVG Export Plug-In . SVG Version: 6.00 Build 0)  -->
<svg version="1.1" id="Calque_1" xmlns="http://www.w3.org/2000/svg" xmlns:xlink="http://www.w3.org/1999/xlink" x="0px" y="0px"
	 viewBox="0 0 225 195" style="enable-background:new 0 0 225 195;" xml:space="preserve">
<style type="text/css">
	.st0{fill:#FFFFFF;}
	.st1{fill:none;}
</style>
<path class="st0" d="M77,3.1c1,0,6.9,0,9.3,0c13.1,0,9.1,13.6,4.5,21.6l-20.3,35L52.2,28.1C40.5,7.9,39.2,3.3,49.9,3.3h10.9V1.8H1.6
	v1.4h9.1c9.1,0,12.6,5,23.7,24l20.5,35.4v20.8c0,28.5-0.8,29.1-8.8,29.1H35.4v1.6c4.5,0,29.6-0.2,31.8-0.2c2.6,0,19.2,0.2,23.8,0.2
	v-1.6H80.3c-8,0-8.8-0.6-8.8-29.1V61.8l21-36.6c5.6-9.8,14.1-21.9,23.4-21.9h8.3V1.8h-47L77,3.1z"/>
<path class="st0" d="M176.1,78.1c0.8,0,11.2,0,12.5,0c6.7,0,10.2,2.7,10.2,8.3c0,4.8-2.7,13-4.8,18.6l-21.9,58.2
	c-0.3,0.6-0.5,1-0.8,1s-0.5-0.3-0.8-1l-25.9-60.6c-8-22.4-10.1-24.3-2.4-24.3h11v-1.4H97.4v1.4h9.1c8.2,0,10.6,1.6,20.8,27.5
	l33.1,83.4c0.3,0.3,0.6,0.5,1.6,0.5h1c0.8,0,1-0.2,1.1-0.5l32.2-84.6c2.4-6.1,5.8-13,8.3-17.9c2.9-5.9,6.1-8.3,11.5-8.3h8.5v-1.4
	h-48.3L176.1,78.1z"/>
<path class="st0" d="M36.2,148.1c0.1,0,0.9,0,1.2,0c1.6,0,1.1,1.7,0.6,2.7l-2.5,4.4l-2.3-4c-1.5-2.5-1.6-3.1-0.3-3.1h1.4V148h-7.4
	v0.2h1.1c1.1,0,1.6,0.6,3,3l2.6,4.4v2.6c0,3.6-0.1,3.6-1.1,3.6H31v0.2c0.6,0,3.7,0,4,0c0.3,0,2.4,0,3,0v-0.2h-1.3
	c-1,0-1.1-0.1-1.1-3.6v-2.7l2.6-4.6c0.7-1.2,1.8-2.7,2.9-2.7h1V148h-5.9L36.2,148.1z M47.8,147.8c-3.9,0-7.2,3-7.2,7.2
	c0,4.2,3.2,7.2,7.1,7.2c3.8,0,7.2-3.1,7.2-7.2S51.8,147.8,47.8,147.8z M47.6,162c-3.4,0-4.7-2.9-4.7-7s1.5-7,5-7
	c3.5,0,4.8,2.9,4.8,7S51.1,162,47.6,162z M62.7,148.2h1.2c1.8,0,2.4-0.2,2.3,3.9v4.4c0,3.1-1.5,5.2-4.1,5.2c-3,0-3.5-2-3.5-5.6v-3.9
	c0-3.9,0.1-4,1.1-4H61V148h-6.9v0.2h1.2c1,0,1.1,0.1,1.1,4v4.5c0,3.6,1.8,5.6,4.9,5.6c3.3,0,5-2.4,5-5.8V152c0-3.8,0.3-3.9,1.3-3.9
	h1.1V148h-6.1V148.2z M36.6,175.1c0.1,0,1.4,0,1.6,0c0.8,0,1.3,0.3,1.3,1c0,0.6-0.3,1.6-0.6,2.3l-2.7,7.3c0,0.1-0.1,0.1-0.1,0.1
	s-0.1,0-0.1-0.1l-3.2-7.6c-1-2.8-1.3-3-0.3-3h1.4V175h-7v0.2h1.1c1,0,1.3,0.2,2.6,3.4l4.1,10.4c0,0,0.1,0.1,0.2,0.1h0.1
	c0.1,0,0.1,0,0.1-0.1l4-10.6c0.3-0.8,0.7-1.6,1-2.2c0.4-0.7,0.8-1,1.4-1h1.1V175h-6L36.6,175.1z M51,188.9l-2.5,0
	c-1.8,0-2.1,0.2-2.1-1.8l0-5.3h1.3v0c2.6,0,3.5,1,3.5,2.9h0.1v-6.2h-0.1c0,1.8-1,3.1-3,3.1l-1.7,0l0-4.2c0-2.5,0-2.3,1.8-2.3l2.4,0
	c2.4,0,2.6,5,2.6,5h0.2v-5c0-0.1-0.1-0.2-0.2-0.2H42.3v0.1c1.9,0,2.1-0.2,2.1,2.3l-0.1,9.2c0,2.6,0,2.3-1.9,2.3v0.1h11.2
	c0.1,0,0.2-0.1,0.2-0.2v-5h-0.2C53.6,183.8,53.5,188.9,51,188.9z M70.6,175h-6.2v0.1c1.8,0,3,1,3.1,3l-0.1,7.4c0,0.2,0,0,0,0.2
	l-7.7-9.7c-0.3-0.3-0.6-0.7-0.7-1c0,0,0-0.1-0.1-0.1h-3.8v0.1c0.2,0,0.3,0,0.5,0c0.1,0,0.1,0,0.2,0h0c1,0,1.3,0.1,1.3,1.1
	c0,0.1,0,0.2,0,0.4c0,0.1,0,0.1,0,0.2c0,0.2,0,0.4,0,0.7l-0.1,7.9c0,2.6-1,3.5-2.9,3.5v0.1h6.1v-0.1c-1.8,0-3-1-3.1-3l0.1-8.4
	c0-0.4,0-0.7,0-1c0,0,0-0.1,0-0.1l9.6,12.3c0,0.1,0.1,0.1,0.1,0.1c0.1,0.1,0.2,0.2,0.2,0.2h0.3v-0.5l0.1-9.9h0c0-2.6,1-3.5,2.9-3.5
	V175z M82.6,183.8c-0.1,1.3-0.9,3-1.7,3.8c-0.8,0.9-1.5,1.4-3.3,1.4c-3.8,0-5.4-2.7-5.4-7s1.7-7,5.5-7c1.7,0,2.4,0.4,3.2,1.3
	c0.7,0.8,1.5,2.4,1.6,3.7h0.2v-4.3c-1.1-0.5-3.3-0.9-5-0.9c-4.3,0-7.8,2.9-7.8,7.2c0,4.3,3.4,7.2,7.8,7.2c1.9,0,4-0.4,5-0.9v-4.5
	H82.6z M92.1,188.9l-2.5,0c-1.8,0-2.1,0.2-2.1-1.8l0-5.3h1.3v0c2.6,0,3.5,1,3.5,2.9h0.1v-6.2h-0.1c0,1.8-1,3.1-3,3.1l-1.7,0l0-4.2
	c0-2.5,0-2.3,1.8-2.3l2.4,0c2.4,0,2.6,5,2.6,5h0.2v-5c0-0.1-0.1-0.2-0.2-0.2H83.4v0.1c1.9,0,2.1-0.2,2.1,2.3l-0.1,9.2
	c0,2.6,0,2.3-1.9,2.3v0.1h11.2c0.1,0,0.2-0.1,0.2-0.2v-5h-0.2C94.7,183.8,94.6,188.9,92.1,188.9z"/>
<rect x="130" y="1" class="st1" width="58" height="58"/>
</svg>
