<svg width="30" height="30" viewBox="0 0 30 30" fill="none" xmlns="http://www.w3.org/2000/svg">
<g clip-path="url(#clip0_382_645)">
<path d="M15 0C12.0333 0 9.13319 0.879734 6.66645 2.52796C4.19972 4.17618 2.27713 6.51886 1.14181 9.25975C0.00649903 12.0006 -0.290551 15.0166 0.288228 17.9263C0.867006 20.8361 2.29562 23.5088 4.3934 25.6066C6.49119 27.7044 9.16393 29.133 12.0736 29.7118C14.9834 30.2905 17.9994 29.9935 20.7403 28.8582C23.4811 27.7229 25.8238 25.8003 27.472 23.3335C29.1203 20.8668 30 17.9667 30 15C29.9956 11.0231 28.4139 7.21032 25.6018 4.39822C22.7897 1.58612 18.9769 0.00436739 15 0ZM6.13051 25.563C7.02077 23.9954 8.3106 22.6917 9.86863 21.7848C11.4267 20.8779 13.1972 20.4001 15 20.4001C16.8028 20.4001 18.5733 20.8779 20.1314 21.7848C21.6894 22.6917 22.9792 23.9954 23.8695 25.563C21.3869 27.6535 18.2456 28.8 15 28.8C11.7544 28.8 8.61314 27.6535 6.13051 25.563ZM24.7755 24.7305C23.2849 22.2385 20.8953 20.4131 18.099 19.6305C19.3991 18.9391 20.4307 17.8327 21.0296 16.4874C21.6284 15.1421 21.7602 13.6352 21.4039 12.2063C21.0476 10.7775 20.2237 9.50893 19.0633 8.60235C17.9028 7.69577 16.4726 7.2033 15 7.2033C13.5274 7.2033 12.0972 7.69577 10.9367 8.60235C9.77633 9.50893 8.95243 10.7775 8.59612 12.2063C8.23981 13.6352 8.37157 15.1421 8.97044 16.4874C9.5693 17.8327 10.6009 18.9391 11.901 19.6305C9.10469 20.4131 6.71507 22.2385 5.22451 24.7305C3.29948 22.7986 1.99005 20.3396 1.46157 17.664C0.933093 14.9884 1.20926 12.2162 2.25519 9.69746C3.30113 7.17871 5.06994 5.02636 7.33826 3.51218C9.60659 1.998 12.2727 1.18988 15 1.18988C17.7273 1.18988 20.3934 1.998 22.6617 3.51218C24.9301 5.02636 26.6989 7.17871 27.7448 9.69746C28.7908 12.2162 29.0669 14.9884 28.5384 17.664C28.01 20.3396 26.7005 22.7986 24.7755 24.7305ZM15 19.2C13.932 19.2 12.8879 18.8833 11.9999 18.2899C11.1119 17.6966 10.4198 16.8532 10.0111 15.8665C9.60234 14.8798 9.4954 13.794 9.70376 12.7465C9.91212 11.699 10.4264 10.7368 11.1816 9.98162C11.9368 9.22642 12.899 8.71212 13.9465 8.50376C14.994 8.2954 16.0798 8.40233 17.0665 8.81105C18.0532 9.21976 18.8966 9.91189 19.4899 10.7999C20.0833 11.6879 20.4 12.732 20.4 13.8C20.4 15.2322 19.8311 16.6057 18.8184 17.6184C17.8057 18.6311 16.4322 19.2 15 19.2Z" fill="white"/>
</g>
<defs>
<clipPath id="clip0_382_645">
<rect width="30" height="30" fill="white"/>
</clipPath>
</defs>
</svg>
